<mxfile host="Electron" modified="2024-02-09T14:52:24.533Z" agent="Mozilla/5.0 (Windows NT 10.0; Win64; x64) AppleWebKit/537.36 (KHTML, like Gecko) draw.io/22.1.16 Chrome/120.0.6099.109 Electron/28.1.0 Safari/537.36" etag="R4CutcLhGvaVgfQhPNPc" version="22.1.16" type="device">
  <diagram name="Page-1" id="UgkzKDdlbD2YLOSZ790F">
    <mxGraphModel dx="2016" dy="2480" grid="1" gridSize="10" guides="1" tooltips="1" connect="1" arrows="1" fold="1" page="1" pageScale="1" pageWidth="850" pageHeight="1100" math="0" shadow="0">
      <root>
        <mxCell id="0" />
        <mxCell id="1" parent="0" />
        <mxCell id="N9ySa-mEWaRBu_4OoYGM-2" value="" style="group;fillColor=#232136;strokeColor=#232136;strokeWidth=26;" parent="1" vertex="1" connectable="0">
          <mxGeometry x="750" y="-20" width="870" height="600" as="geometry" />
        </mxCell>
        <mxCell id="ultGdkTZjcFe20rOqxWl-29" value="&lt;font style=&quot;font-size: 14px;&quot;&gt;1&lt;/font&gt;" style="text;html=1;strokeColor=none;fillColor=none;align=center;verticalAlign=middle;whiteSpace=wrap;rounded=0;fontSize=14;fontFamily=Helvetica;fontColor=#FFFFFF;" parent="N9ySa-mEWaRBu_4OoYGM-2" vertex="1">
          <mxGeometry x="396.8061401340509" y="434.61267454350156" width="76.43913821763067" height="35.44575725026852" as="geometry" />
        </mxCell>
        <mxCell id="ultGdkTZjcFe20rOqxWl-34" value="&lt;font style=&quot;font-size: 14px;&quot;&gt;Has&lt;/font&gt;" style="text;html=1;strokeColor=none;fillColor=none;align=center;verticalAlign=middle;whiteSpace=wrap;rounded=0;fontSize=14;fontFamily=Helvetica;fontColor=#FFFFFF;" parent="N9ySa-mEWaRBu_4OoYGM-2" vertex="1">
          <mxGeometry x="363.08590653374563" y="417.8947368421052" width="76.43913821763067" height="35.44575725026852" as="geometry" />
        </mxCell>
        <mxCell id="ultGdkTZjcFe20rOqxWl-24" value="&lt;font style=&quot;font-size: 14px;&quot;&gt;1&lt;/font&gt;" style="text;html=1;strokeColor=none;fillColor=none;align=center;verticalAlign=middle;whiteSpace=wrap;rounded=0;fontSize=14;fontFamily=Helvetica;fontColor=#FFFFFF;" parent="N9ySa-mEWaRBu_4OoYGM-2" vertex="1">
          <mxGeometry x="279.68553797857476" y="164.54865735767987" width="82.80906640243322" height="35.44575725026852" as="geometry" />
        </mxCell>
        <mxCell id="ultGdkTZjcFe20rOqxWl-25" value="&lt;font style=&quot;font-size: 14px;&quot;&gt;Has a root&lt;/font&gt;" style="text;html=1;strokeColor=none;fillColor=none;align=center;verticalAlign=middle;whiteSpace=wrap;rounded=0;fontSize=14;fontFamily=Helvetica;fontColor=#FFFFFF;" parent="N9ySa-mEWaRBu_4OoYGM-2" vertex="1">
          <mxGeometry x="253.51978226873587" y="189.46852846401714" width="76.43913821763067" height="35.44575725026852" as="geometry" />
        </mxCell>
        <mxCell id="6oxuOz3wnvCVODKfcnTl-1" value="&lt;p style=&quot;margin: 4px 0px 0px; text-align: center; font-size: 16px;&quot;&gt;&lt;font style=&quot;font-size: 16px;&quot;&gt;&lt;b style=&quot;background-color: initial; font-size: 16px;&quot;&gt;&lt;i style=&quot;font-size: 16px;&quot;&gt;Component&lt;/i&gt;&lt;/b&gt;&lt;br style=&quot;font-size: 16px;&quot;&gt;&lt;/font&gt;&lt;/p&gt;&lt;hr style=&quot;font-size: 16px;&quot;&gt;&lt;p style=&quot;margin: 0px 0px 0px 4px; font-size: 16px;&quot;&gt;&lt;span style=&quot;background-color: initial; font-size: 16px;&quot;&gt;&lt;font style=&quot;font-size: 16px;&quot;&gt;+ name: String&lt;/font&gt;&lt;/span&gt;&lt;/p&gt;&lt;p style=&quot;margin: 0px 0px 0px 4px; font-size: 16px;&quot;&gt;&lt;span style=&quot;background-color: initial; font-size: 16px;&quot;&gt;&lt;font style=&quot;font-size: 16px;&quot;&gt;+ uuid: Uuid&lt;/font&gt;&lt;/span&gt;&lt;/p&gt;&lt;p style=&quot;margin: 0px 0px 0px 4px; font-size: 16px;&quot;&gt;&lt;span style=&quot;background-color: initial; font-size: 16px;&quot;&gt;&lt;font style=&quot;font-size: 16px;&quot;&gt;+ last_reading: NaiveDateTime&lt;/font&gt;&lt;/span&gt;&lt;/p&gt;" style="verticalAlign=top;align=left;overflow=fill;fontSize=16;fontFamily=Helvetica;html=1;whiteSpace=wrap;labelBackgroundColor=none;fillColor=#232136;strokeColor=#DB918D;fontColor=#FFFFFF;strokeWidth=3;" parent="N9ySa-mEWaRBu_4OoYGM-2" vertex="1">
          <mxGeometry x="615.6455421686746" y="297.378947368421" width="248.12819277108434" height="113.14736842105263" as="geometry" />
        </mxCell>
        <mxCell id="ex1zAhzP3RsQWdwygTMw-9" style="edgeStyle=orthogonalEdgeStyle;shape=connector;rounded=1;orthogonalLoop=1;jettySize=auto;html=1;exitX=0.5;exitY=1;exitDx=0;exitDy=0;labelBackgroundColor=default;strokeColor=#DB918D;strokeWidth=3;align=center;verticalAlign=middle;fontFamily=Helvetica;fontSize=11;fontColor=#FFFFFF;endArrow=none;endFill=0;curved=0;" parent="N9ySa-mEWaRBu_4OoYGM-2" source="k4MrNBwa_ON_j0a-5Z7k-2" target="6oxuOz3wnvCVODKfcnTl-1" edge="1">
          <mxGeometry relative="1" as="geometry" />
        </mxCell>
        <mxCell id="k4MrNBwa_ON_j0a-5Z7k-2" value="&lt;p style=&quot;margin: 4px 0px 0px; text-align: center; font-size: 16px;&quot;&gt;&lt;font style=&quot;font-size: 16px;&quot;&gt;&lt;i style=&quot;font-size: 16px;&quot;&gt;&amp;lt;&amp;lt;enumeration&amp;gt;&amp;gt;&lt;/i&gt;&lt;br style=&quot;font-size: 16px;&quot;&gt;&lt;b style=&quot;font-size: 16px;&quot;&gt;Status&lt;/b&gt;&lt;/font&gt;&lt;/p&gt;&lt;hr style=&quot;font-size: 16px;&quot;&gt;&lt;p style=&quot;margin: 0px 0px 0px 4px; font-size: 16px;&quot;&gt;&lt;font style=&quot;font-size: 16px;&quot;&gt;&amp;nbsp; Coherent,&lt;/font&gt;&lt;/p&gt;&lt;p style=&quot;margin: 0px 0px 0px 4px; font-size: 16px;&quot;&gt;&lt;font style=&quot;font-size: 16px;&quot;&gt;&amp;nbsp; Degraded,&lt;/font&gt;&lt;/p&gt;&lt;p style=&quot;margin: 0px 0px 0px 4px; font-size: 16px;&quot;&gt;&lt;font style=&quot;font-size: 16px;&quot;&gt;&amp;nbsp; Critical,&lt;/font&gt;&lt;/p&gt;&lt;p style=&quot;margin: 0px 0px 0px 4px; font-size: 16px;&quot;&gt;&lt;font style=&quot;font-size: 16px;&quot;&gt;&amp;nbsp; Fault,&lt;/font&gt;&lt;/p&gt;&lt;p style=&quot;margin: 0px 0px 0px 4px; font-size: 16px;&quot;&gt;&lt;font style=&quot;font-size: 16px;&quot;&gt;&amp;nbsp; Uninitialized&lt;/font&gt;&lt;/p&gt;" style="verticalAlign=top;align=left;overflow=fill;fontSize=16;fontFamily=Helvetica;html=1;whiteSpace=wrap;strokeColor=#DB918D;fontColor=#FFFFFF;fillColor=#232136;labelBackgroundColor=none;strokeWidth=3;" parent="N9ySa-mEWaRBu_4OoYGM-2" vertex="1">
          <mxGeometry x="656.9024096385542" width="165.6144578313253" height="178.94736842105263" as="geometry" />
        </mxCell>
        <mxCell id="amVTd4cIFYr5nZaXsDXt-2" value="&lt;p style=&quot;margin: 4px 0px 0px; text-align: center; font-size: 16px;&quot;&gt;&lt;font style=&quot;font-size: 16px;&quot;&gt;&lt;b style=&quot;font-size: 16px;&quot;&gt;SCMessage&lt;/b&gt;&lt;/font&gt;&lt;/p&gt;&lt;hr style=&quot;font-size: 16px;&quot;&gt;&lt;p style=&quot;margin: 0px 0px 0px 4px; font-size: 16px;&quot;&gt;&lt;font style=&quot;font-size: 16px;&quot;&gt;+ device_uuid: Uuid&lt;/font&gt;&lt;/p&gt;&lt;p style=&quot;margin: 0px 0px 0px 4px; font-size: 16px;&quot;&gt;&lt;font style=&quot;font-size: 16px;&quot;&gt;+ topic: String&lt;/font&gt;&lt;/p&gt;&lt;p style=&quot;margin: 0px 0px 0px 4px; font-size: 16px;&quot;&gt;&lt;font style=&quot;font-size: 16px;&quot;&gt;+ timestamp: NaiveDateTime&lt;/font&gt;&lt;/p&gt;&lt;p style=&quot;margin: 0px 0px 0px 4px; font-size: 16px;&quot;&gt;&lt;font style=&quot;font-size: 16px;&quot;&gt;+ values: HashMap&amp;lt;String, Value&amp;gt;&lt;/font&gt;&lt;/p&gt;&lt;p style=&quot;margin: 0px 0px 0px 4px; font-size: 16px;&quot;&gt;&lt;font style=&quot;font-size: 16px;&quot;&gt;+ status: String&lt;/font&gt;&lt;/p&gt;&lt;p style=&quot;margin: 0px 0px 0px 4px; font-size: 16px;&quot;&gt;&lt;font style=&quot;font-size: 16px;&quot;&gt;+ alert: bool&lt;/font&gt;&lt;/p&gt;" style="verticalAlign=top;align=left;overflow=fill;fontSize=16;fontFamily=Helvetica;html=1;whiteSpace=wrap;strokeColor=#DB918D;fontColor=#FFFFFF;fillColor=#232136;labelBackgroundColor=none;strokeWidth=3;" parent="N9ySa-mEWaRBu_4OoYGM-2" vertex="1">
          <mxGeometry x="-8.595180722891564" y="315.7894736842105" width="283.01204819277103" height="163.7684210526316" as="geometry" />
        </mxCell>
        <mxCell id="ex1zAhzP3RsQWdwygTMw-3" value="" style="edgeStyle=orthogonalEdgeStyle;shape=connector;rounded=1;orthogonalLoop=1;jettySize=auto;html=1;labelBackgroundColor=default;strokeColor=#DB918D;strokeWidth=3;align=center;verticalAlign=middle;fontFamily=Helvetica;fontSize=11;fontColor=#FFFFFF;endArrow=classic;endFill=1;curved=0;" parent="N9ySa-mEWaRBu_4OoYGM-2" source="bPzTSkkldETOd2Aa_31L-1" target="6oxuOz3wnvCVODKfcnTl-1" edge="1">
          <mxGeometry relative="1" as="geometry" />
        </mxCell>
        <mxCell id="ex1zAhzP3RsQWdwygTMw-10" style="edgeStyle=orthogonalEdgeStyle;shape=connector;rounded=1;orthogonalLoop=1;jettySize=auto;html=1;exitX=0.75;exitY=0;exitDx=0;exitDy=0;labelBackgroundColor=default;strokeColor=#DB918D;strokeWidth=3;align=center;verticalAlign=middle;fontFamily=Helvetica;fontSize=11;fontColor=#FFFFFF;endArrow=none;endFill=0;curved=0;" parent="N9ySa-mEWaRBu_4OoYGM-2" source="bPzTSkkldETOd2Aa_31L-1" target="k4MrNBwa_ON_j0a-5Z7k-2" edge="1">
          <mxGeometry relative="1" as="geometry">
            <Array as="points">
              <mxPoint x="486.3614457831325" y="263.15789473684214" />
              <mxPoint x="700.1927710843373" y="263.15789473684214" />
            </Array>
          </mxGeometry>
        </mxCell>
        <mxCell id="bPzTSkkldETOd2Aa_31L-1" value="&lt;p style=&quot;margin: 4px 0px 0px; text-align: center; font-size: 16px;&quot;&gt;&lt;b style=&quot;font-size: 16px;&quot;&gt;&lt;i style=&quot;font-size: 16px;&quot;&gt;&lt;font style=&quot;font-size: 16px;&quot;&gt;DataRequirement&lt;/font&gt;&lt;/i&gt;&lt;/b&gt;&lt;/p&gt;&lt;hr style=&quot;font-size: 16px;&quot;&gt;&lt;p style=&quot;margin: 0px 0px 0px 4px; font-size: 16px;&quot;&gt;&lt;font style=&quot;font-size: 16px;&quot;&gt;+ required: bool&lt;/font&gt;&lt;/p&gt;&lt;p style=&quot;margin: 0px 0px 0px 4px; font-size: 16px;&quot;&gt;&lt;font style=&quot;font-size: 16px;&quot;&gt;+ count: usize&lt;/font&gt;&lt;/p&gt;&lt;p style=&quot;margin: 0px 0px 0px 4px; font-size: 16px;&quot;&gt;&lt;font style=&quot;font-size: 16px;&quot;&gt;&lt;span style=&quot;background-color: initial; font-size: 16px;&quot;&gt;+ timeout: Option&amp;lt;Duration&amp;gt;&amp;nbsp;&lt;/span&gt;&lt;/font&gt;&lt;/p&gt;&lt;p style=&quot;margin: 0px 0px 0px 4px; font-size: 16px;&quot;&gt;&lt;br style=&quot;font-size: 16px;&quot;&gt;&lt;/p&gt;" style="verticalAlign=top;align=left;overflow=fill;fontSize=16;fontFamily=Helvetica;html=1;whiteSpace=wrap;labelBackgroundColor=none;fillColor=#232136;fontColor=#FFFFFF;strokeColor=#DB918D;strokeWidth=3;" parent="N9ySa-mEWaRBu_4OoYGM-2" vertex="1">
          <mxGeometry x="309.7409638554217" y="299.38947368421054" width="235.31927710843374" height="111.13684210526316" as="geometry" />
        </mxCell>
        <mxCell id="bPzTSkkldETOd2Aa_31L-2" value="&lt;p style=&quot;margin: 4px 0px 0px; text-align: center; font-size: 16px;&quot;&gt;&lt;b style=&quot;font-size: 16px;&quot;&gt;&lt;font style=&quot;font-size: 16px;&quot;&gt;Application&lt;/font&gt;&lt;/b&gt;&lt;/p&gt;&lt;hr style=&quot;font-size: 16px;&quot;&gt;&lt;p style=&quot;margin: 0px 0px 0px 4px; font-size: 16px;&quot;&gt;&lt;font style=&quot;font-size: 16px;&quot;&gt;+ name: String&lt;/font&gt;&lt;/p&gt;&lt;p style=&quot;margin: 0px 0px 0px 4px; font-size: 16px;&quot;&gt;&lt;font style=&quot;font-size: 16px;&quot;&gt;&lt;span style=&quot;background-color: initial; font-size: 16px;&quot;&gt;+&amp;nbsp;description: String&lt;/span&gt;&lt;br style=&quot;font-size: 16px;&quot;&gt;&lt;/font&gt;&lt;/p&gt;&lt;p style=&quot;margin: 0px 0px 0px 4px; font-size: 16px;&quot;&gt;&lt;span style=&quot;background-color: initial; font-size: 16px;&quot;&gt;&lt;font style=&quot;font-size: 16px;&quot;&gt;+ last_update: NaiveDateTime&lt;/font&gt;&lt;/span&gt;&lt;/p&gt;&lt;p style=&quot;margin: 0px 0px 0px 4px; font-size: 16px;&quot;&gt;&lt;br style=&quot;font-size: 16px;&quot;&gt;&lt;/p&gt;" style="verticalAlign=top;align=left;overflow=fill;fontSize=16;fontFamily=Helvetica;html=1;whiteSpace=wrap;labelBackgroundColor=none;fillColor=#232136;strokeColor=#DB918D;fontColor=#FFFFFF;strokeWidth=3;" parent="N9ySa-mEWaRBu_4OoYGM-2" vertex="1">
          <mxGeometry x="14.244939759036145" y="129.28421052631577" width="237.3213253012048" height="129.18947368421053" as="geometry" />
        </mxCell>
        <mxCell id="ex1zAhzP3RsQWdwygTMw-8" style="edgeStyle=orthogonalEdgeStyle;shape=connector;rounded=1;orthogonalLoop=1;jettySize=auto;html=1;exitX=0.5;exitY=0;exitDx=0;exitDy=0;labelBackgroundColor=default;strokeColor=#DB918D;strokeWidth=3;align=center;verticalAlign=middle;fontFamily=Helvetica;fontSize=11;fontColor=#FFFFFF;endArrow=none;endFill=0;curved=0;startArrow=none;startFill=0;" parent="N9ySa-mEWaRBu_4OoYGM-2" source="bPzTSkkldETOd2Aa_31L-2" target="k4MrNBwa_ON_j0a-5Z7k-2" edge="1">
          <mxGeometry relative="1" as="geometry">
            <Array as="points">
              <mxPoint x="138.36144578313252" y="52.63157894736842" />
            </Array>
          </mxGeometry>
        </mxCell>
        <mxCell id="ex1zAhzP3RsQWdwygTMw-6" style="edgeStyle=orthogonalEdgeStyle;shape=connector;rounded=0;orthogonalLoop=1;jettySize=auto;html=1;labelBackgroundColor=default;strokeColor=#DB918D;strokeWidth=3;align=center;verticalAlign=middle;fontFamily=Helvetica;fontSize=11;fontColor=#FFFFFF;endArrow=none;endFill=0;" parent="N9ySa-mEWaRBu_4OoYGM-2" source="amVTd4cIFYr5nZaXsDXt-2" target="bPzTSkkldETOd2Aa_31L-2" edge="1">
          <mxGeometry relative="1" as="geometry" />
        </mxCell>
        <mxCell id="ex1zAhzP3RsQWdwygTMw-4" value="" style="edgeStyle=orthogonalEdgeStyle;shape=connector;rounded=1;orthogonalLoop=1;jettySize=auto;html=1;labelBackgroundColor=default;strokeColor=#DB918D;strokeWidth=3;align=center;verticalAlign=middle;fontFamily=Helvetica;fontSize=11;fontColor=#FFFFFF;endArrow=classic;endFill=1;curved=0;exitX=0.481;exitY=0.989;exitDx=0;exitDy=0;exitPerimeter=0;entryX=0.5;entryY=0;entryDx=0;entryDy=0;" parent="N9ySa-mEWaRBu_4OoYGM-2" source="bPzTSkkldETOd2Aa_31L-5" target="bPzTSkkldETOd2Aa_31L-1" edge="1">
          <mxGeometry relative="1" as="geometry" />
        </mxCell>
        <mxCell id="bPzTSkkldETOd2Aa_31L-5" value="&lt;p style=&quot;margin: 4px 0px 0px; text-align: center; font-size: 16px;&quot;&gt;&lt;b style=&quot;font-size: 16px;&quot;&gt;&lt;font style=&quot;font-size: 16px;&quot;&gt;Location&lt;/font&gt;&lt;/b&gt;&lt;/p&gt;&lt;hr style=&quot;font-size: 16px;&quot;&gt;&lt;p style=&quot;margin: 0px 0px 0px 4px; font-size: 16px;&quot;&gt;&lt;span style=&quot;background-color: initial; font-size: 16px;&quot;&gt;+ name: String&lt;/span&gt;&lt;br style=&quot;font-size: 16px;&quot;&gt;&lt;/p&gt;&lt;p style=&quot;margin: 0px 0px 0px 4px; font-size: 16px;&quot;&gt;&lt;span style=&quot;background-color: initial; font-size: 16px;&quot;&gt;+ ip: Option&amp;lt;IdAdrr&amp;gt;&lt;/span&gt;&lt;/p&gt;&lt;p style=&quot;margin: 0px 0px 0px 4px; font-size: 16px;&quot;&gt;&lt;br style=&quot;font-size: 16px;&quot;&gt;&lt;/p&gt;" style="verticalAlign=top;align=left;overflow=fill;fontSize=16;fontFamily=Helvetica;html=1;whiteSpace=wrap;labelBackgroundColor=none;fillColor=#232136;strokeColor=#DB918D;fontColor=#FFFFFF;strokeWidth=3;" parent="N9ySa-mEWaRBu_4OoYGM-2" vertex="1">
          <mxGeometry x="345.90361445783134" y="145.6421052631579" width="167.71084337349396" height="96.46315789473684" as="geometry" />
        </mxCell>
        <mxCell id="ultGdkTZjcFe20rOqxWl-4" style="edgeStyle=orthogonalEdgeStyle;shape=connector;curved=0;rounded=1;orthogonalLoop=1;jettySize=auto;html=1;exitX=0.25;exitY=0;exitDx=0;exitDy=0;labelBackgroundColor=default;strokeColor=#DB918D;strokeWidth=3;align=center;verticalAlign=middle;fontFamily=Helvetica;fontSize=11;fontColor=#FFFFFF;endArrow=none;endFill=0;" parent="N9ySa-mEWaRBu_4OoYGM-2" source="bPzTSkkldETOd2Aa_31L-5" target="k4MrNBwa_ON_j0a-5Z7k-2" edge="1">
          <mxGeometry relative="1" as="geometry">
            <Array as="points">
              <mxPoint x="382.5903614457831" y="84.21052631578947" />
            </Array>
          </mxGeometry>
        </mxCell>
        <mxCell id="bPzTSkkldETOd2Aa_31L-8" style="edgeStyle=orthogonalEdgeStyle;rounded=0;orthogonalLoop=1;jettySize=auto;html=1;strokeWidth=3;endArrow=classic;endFill=1;strokeColor=#DB918D;fontColor=#FFFFFF;" parent="N9ySa-mEWaRBu_4OoYGM-2" source="bPzTSkkldETOd2Aa_31L-2" target="bPzTSkkldETOd2Aa_31L-5" edge="1">
          <mxGeometry relative="1" as="geometry" />
        </mxCell>
        <mxCell id="bPzTSkkldETOd2Aa_31L-6" value="&lt;p style=&quot;margin: 4px 0px 0px; text-align: center; font-size: 16px;&quot;&gt;&lt;font style=&quot;font-size: 16px;&quot;&gt;&lt;i style=&quot;font-size: 16px;&quot;&gt;&amp;lt;&amp;lt;enumeration&amp;gt;&amp;gt;&lt;/i&gt;&lt;br style=&quot;font-size: 16px;&quot;&gt;&lt;b style=&quot;font-size: 16px;&quot;&gt;IoTOutput&lt;/b&gt;&lt;/font&gt;&lt;/p&gt;&lt;hr style=&quot;font-size: 16px;&quot;&gt;&lt;p style=&quot;margin: 0px 0px 0px 4px; font-size: 16px;&quot;&gt;&lt;font style=&quot;font-size: 16px;&quot;&gt;&amp;nbsp; Number,&lt;/font&gt;&lt;/p&gt;&lt;p style=&quot;margin: 0px 0px 0px 4px; font-size: 16px;&quot;&gt;&lt;font style=&quot;font-size: 16px;&quot;&gt;&amp;nbsp; Boolean,&lt;/font&gt;&lt;/p&gt;&lt;p style=&quot;margin: 0px 0px 0px 4px; font-size: 16px;&quot;&gt;&lt;font style=&quot;font-size: 16px;&quot;&gt;&amp;nbsp; Text,&lt;/font&gt;&lt;/p&gt;&lt;p style=&quot;margin: 0px 0px 0px 4px; font-size: 16px;&quot;&gt;&lt;font style=&quot;font-size: 16px;&quot;&gt;&amp;nbsp; Invalid&lt;/font&gt;&lt;/p&gt;" style="verticalAlign=top;align=left;overflow=fill;fontSize=16;fontFamily=Helvetica;html=1;whiteSpace=wrap;strokeColor=#DB918D;fontColor=#FFFFFF;fillColor=#232136;labelBackgroundColor=none;strokeWidth=3;" parent="N9ySa-mEWaRBu_4OoYGM-2" vertex="1">
          <mxGeometry x="344.5933734939759" y="463.1578947368421" width="165.6144578313253" height="147.01052631578946" as="geometry" />
        </mxCell>
        <mxCell id="ex1zAhzP3RsQWdwygTMw-5" style="edgeStyle=orthogonalEdgeStyle;shape=connector;rounded=0;orthogonalLoop=1;jettySize=auto;html=1;labelBackgroundColor=default;strokeColor=#DB918D;strokeWidth=3;align=center;verticalAlign=middle;fontFamily=Helvetica;fontSize=11;fontColor=#FFFFFF;endArrow=none;endFill=0;" parent="N9ySa-mEWaRBu_4OoYGM-2" source="bPzTSkkldETOd2Aa_31L-1" target="bPzTSkkldETOd2Aa_31L-6" edge="1">
          <mxGeometry relative="1" as="geometry" />
        </mxCell>
        <mxCell id="bPzTSkkldETOd2Aa_31L-9" style="edgeStyle=orthogonalEdgeStyle;shape=connector;rounded=1;orthogonalLoop=1;jettySize=auto;html=1;exitX=0.5;exitY=0;exitDx=0;exitDy=0;entryX=1;entryY=0.5;entryDx=0;entryDy=0;labelBackgroundColor=default;strokeColor=#DB918D;strokeWidth=3;align=center;verticalAlign=middle;fontFamily=Helvetica;fontSize=11;fontColor=#FFFFFF;endArrow=diamondThin;endFill=0;curved=0;endSize=15;startSize=10;" parent="N9ySa-mEWaRBu_4OoYGM-2" source="bPzTSkkldETOd2Aa_31L-5" target="bPzTSkkldETOd2Aa_31L-5" edge="1">
          <mxGeometry relative="1" as="geometry">
            <Array as="points">
              <mxPoint x="426.6144578313253" y="145.26315789473685" />
              <mxPoint x="426.6144578313253" y="126.31578947368422" />
              <mxPoint x="555.5421686746988" y="126.31578947368422" />
              <mxPoint x="555.5421686746988" y="193.68421052631578" />
            </Array>
          </mxGeometry>
        </mxCell>
        <mxCell id="ultGdkTZjcFe20rOqxWl-5" value="&lt;font style=&quot;font-size: 14px;&quot;&gt;Consumes&lt;/font&gt;" style="text;html=1;strokeColor=none;fillColor=none;align=center;verticalAlign=middle;whiteSpace=wrap;rounded=0;fontSize=14;fontFamily=Helvetica;fontColor=#FFFFFF;" parent="N9ySa-mEWaRBu_4OoYGM-2" vertex="1">
          <mxGeometry x="138.35267396387218" y="268.6730397422126" width="76.43913821763067" height="35.44575725026852" as="geometry" />
        </mxCell>
        <mxCell id="ultGdkTZjcFe20rOqxWl-10" value="&lt;font style=&quot;font-size: 14px;&quot;&gt;Has many&lt;/font&gt;" style="text;html=1;strokeColor=none;fillColor=none;align=center;verticalAlign=middle;whiteSpace=wrap;rounded=0;fontSize=14;fontFamily=Helvetica;fontColor=#FFFFFF;" parent="N9ySa-mEWaRBu_4OoYGM-2" vertex="1">
          <mxGeometry x="452.26490112098145" y="98.53018259935551" width="76.43913821763067" height="35.44575725026852" as="geometry" />
        </mxCell>
        <mxCell id="ultGdkTZjcFe20rOqxWl-12" value="&lt;font style=&quot;font-size: 14px;&quot;&gt;1&lt;/font&gt;" style="text;html=1;strokeColor=none;fillColor=none;align=center;verticalAlign=middle;whiteSpace=wrap;rounded=0;fontSize=14;fontFamily=Helvetica;fontColor=#FFFFFF;" parent="N9ySa-mEWaRBu_4OoYGM-2" vertex="1">
          <mxGeometry x="75.16515258067031" y="98.52738990332975" width="76.43913821763067" height="35.44575725026852" as="geometry" />
        </mxCell>
        <mxCell id="ultGdkTZjcFe20rOqxWl-13" value="&lt;font style=&quot;font-size: 14px;&quot;&gt;1&lt;/font&gt;" style="text;html=1;strokeColor=none;fillColor=none;align=center;verticalAlign=middle;whiteSpace=wrap;rounded=0;fontSize=14;fontFamily=Helvetica;fontColor=#FFFFFF;" parent="N9ySa-mEWaRBu_4OoYGM-2" vertex="1">
          <mxGeometry x="609.1101557747039" y="16.51987110633727" width="76.43913821763067" height="35.44575725026852" as="geometry" />
        </mxCell>
        <mxCell id="ultGdkTZjcFe20rOqxWl-15" value="&lt;font style=&quot;font-size: 14px;&quot;&gt;1&lt;/font&gt;" style="text;html=1;strokeColor=none;fillColor=none;align=center;verticalAlign=middle;whiteSpace=wrap;rounded=0;fontSize=14;fontFamily=Helvetica;fontColor=#FFFFFF;" parent="N9ySa-mEWaRBu_4OoYGM-2" vertex="1">
          <mxGeometry x="609.1101557747039" y="53.607948442534884" width="76.43913821763067" height="35.44575725026852" as="geometry" />
        </mxCell>
        <mxCell id="ultGdkTZjcFe20rOqxWl-16" value="&lt;font style=&quot;font-size: 14px;&quot;&gt;1&lt;/font&gt;" style="text;html=1;strokeColor=none;fillColor=none;align=center;verticalAlign=middle;whiteSpace=wrap;rounded=0;fontSize=14;fontFamily=Helvetica;fontColor=#FFFFFF;" parent="N9ySa-mEWaRBu_4OoYGM-2" vertex="1">
          <mxGeometry x="375.8257629033508" y="113.74543501611168" width="76.43913821763067" height="35.44575725026852" as="geometry" />
        </mxCell>
        <mxCell id="ultGdkTZjcFe20rOqxWl-18" value="&lt;font style=&quot;font-size: 14px;&quot;&gt;*&lt;br style=&quot;font-size: 14px;&quot;&gt;&lt;/font&gt;" style="text;html=1;strokeColor=none;fillColor=none;align=center;verticalAlign=middle;whiteSpace=wrap;rounded=0;fontSize=14;fontFamily=Helvetica;fontColor=#FFFFFF;" parent="N9ySa-mEWaRBu_4OoYGM-2" vertex="1">
          <mxGeometry x="481.5665707710731" y="189.04403866809878" width="76.43913821763067" height="35.44575725026852" as="geometry" />
        </mxCell>
        <mxCell id="ultGdkTZjcFe20rOqxWl-19" value="&lt;font style=&quot;font-size: 14px;&quot;&gt;1&lt;/font&gt;" style="text;html=1;strokeColor=none;fillColor=none;align=center;verticalAlign=middle;whiteSpace=wrap;rounded=0;fontSize=14;fontFamily=Helvetica;fontColor=#FFFFFF;" parent="N9ySa-mEWaRBu_4OoYGM-2" vertex="1">
          <mxGeometry x="649.7326748498606" y="178.9490870032223" width="76.43913821763067" height="35.44575725026852" as="geometry" />
        </mxCell>
        <mxCell id="ultGdkTZjcFe20rOqxWl-20" value="&lt;font style=&quot;font-size: 14px;&quot;&gt;1&lt;/font&gt;" style="text;html=1;strokeColor=none;fillColor=none;align=center;verticalAlign=middle;whiteSpace=wrap;rounded=0;fontSize=14;fontFamily=Helvetica;fontColor=#FFFFFF;" parent="N9ySa-mEWaRBu_4OoYGM-2" vertex="1">
          <mxGeometry x="429.65165606493235" y="268.66702470461865" width="76.43913821763067" height="35.44575725026852" as="geometry" />
        </mxCell>
        <mxCell id="ultGdkTZjcFe20rOqxWl-21" value="&lt;font&gt;1&lt;/font&gt;" style="text;html=1;strokeColor=none;fillColor=none;align=center;verticalAlign=middle;whiteSpace=wrap;rounded=0;fontSize=11;fontFamily=Helvetica;fontColor=#FFFFFF;" parent="N9ySa-mEWaRBu_4OoYGM-2" vertex="1">
          <mxGeometry x="329.96227997277236" y="113.74543501611168" width="76.43913821763067" height="35.44575725026852" as="geometry" />
        </mxCell>
        <mxCell id="ultGdkTZjcFe20rOqxWl-22" value="&lt;font style=&quot;font-size: 14px;&quot;&gt;1&lt;/font&gt;" style="text;html=1;strokeColor=none;fillColor=none;align=center;verticalAlign=middle;whiteSpace=wrap;rounded=0;fontSize=14;fontFamily=Helvetica;fontColor=#FFFFFF;" parent="N9ySa-mEWaRBu_4OoYGM-2" vertex="1">
          <mxGeometry x="233.29709582226815" y="164.5460794844253" width="76.43913821763067" height="35.44575725026852" as="geometry" />
        </mxCell>
        <mxCell id="ultGdkTZjcFe20rOqxWl-27" value="&lt;font style=&quot;font-size: 14px;&quot;&gt;1&lt;/font&gt;" style="text;html=1;strokeColor=none;fillColor=none;align=center;verticalAlign=middle;whiteSpace=wrap;rounded=0;fontSize=14;fontFamily=Helvetica;fontColor=#FFFFFF;" parent="N9ySa-mEWaRBu_4OoYGM-2" vertex="1">
          <mxGeometry x="713.4319566978861" y="178.94844253490862" width="76.43913821763067" height="35.44575725026852" as="geometry" />
        </mxCell>
        <mxCell id="ultGdkTZjcFe20rOqxWl-28" value="&lt;font style=&quot;font-size: 14px;&quot;&gt;1&lt;/font&gt;" style="text;html=1;strokeColor=none;fillColor=none;align=center;verticalAlign=middle;whiteSpace=wrap;rounded=0;fontSize=14;fontFamily=Helvetica;fontColor=#FFFFFF;" parent="N9ySa-mEWaRBu_4OoYGM-2" vertex="1">
          <mxGeometry x="713.4319566978861" y="268.67024704618683" width="76.43913821763067" height="35.44575725026852" as="geometry" />
        </mxCell>
        <mxCell id="ultGdkTZjcFe20rOqxWl-30" value="&lt;font style=&quot;font-size: 14px;&quot;&gt;1&lt;/font&gt;" style="text;html=1;strokeColor=none;fillColor=none;align=center;verticalAlign=middle;whiteSpace=wrap;rounded=0;fontSize=14;fontFamily=Helvetica;fontColor=#FFFFFF;" parent="N9ySa-mEWaRBu_4OoYGM-2" vertex="1">
          <mxGeometry x="396.8061401340509" y="403.3823845327604" width="76.43913821763067" height="35.44575725026852" as="geometry" />
        </mxCell>
        <mxCell id="ultGdkTZjcFe20rOqxWl-32" value="&lt;font style=&quot;font-size: 14px;&quot;&gt;Has&lt;/font&gt;" style="text;html=1;strokeColor=none;fillColor=none;align=center;verticalAlign=middle;whiteSpace=wrap;rounded=0;fontSize=14;fontFamily=Helvetica;fontColor=#FFFFFF;" parent="N9ySa-mEWaRBu_4OoYGM-2" vertex="1">
          <mxGeometry x="396.8061401340509" y="22.941138560687413" width="76.43913821763067" height="35.44575725026852" as="geometry" />
        </mxCell>
        <mxCell id="ultGdkTZjcFe20rOqxWl-33" value="&lt;font style=&quot;font-size: 14px;&quot;&gt;Has&lt;/font&gt;" style="text;html=1;strokeColor=none;fillColor=none;align=center;verticalAlign=middle;whiteSpace=wrap;rounded=0;fontSize=14;fontFamily=Helvetica;fontColor=#FFFFFF;" parent="N9ySa-mEWaRBu_4OoYGM-2" vertex="1">
          <mxGeometry x="719.8018848826887" y="216.68098818474752" width="76.43913821763067" height="35.44575725026852" as="geometry" />
        </mxCell>
        <mxCell id="ultGdkTZjcFe20rOqxWl-35" value="&lt;font style=&quot;font-size: 14px;&quot;&gt;Has&lt;/font&gt;" style="text;html=1;strokeColor=none;fillColor=none;align=center;verticalAlign=middle;whiteSpace=wrap;rounded=0;fontSize=14;fontFamily=Helvetica;fontColor=#FFFFFF;" parent="N9ySa-mEWaRBu_4OoYGM-2" vertex="1">
          <mxGeometry x="452.26490112098145" y="56.28657357679914" width="76.43913821763067" height="35.44575725026852" as="geometry" />
        </mxCell>
        <mxCell id="ultGdkTZjcFe20rOqxWl-36" value="&lt;font style=&quot;font-size: 14px;&quot;&gt;Has&lt;/font&gt;" style="text;html=1;strokeColor=none;fillColor=none;align=center;verticalAlign=middle;whiteSpace=wrap;rounded=0;fontSize=14;fontFamily=Helvetica;fontColor=#FFFFFF;" parent="N9ySa-mEWaRBu_4OoYGM-2" vertex="1">
          <mxGeometry x="558.0057089887038" y="233.216111707841" width="76.43913821763067" height="35.44575725026852" as="geometry" />
        </mxCell>
      </root>
    </mxGraphModel>
  </diagram>
</mxfile>
